<?xml version="1.0" encoding="utf-8"?>
<!-- Generator: Adobe Illustrator 19.0.0, SVG Export Plug-In . SVG Version: 6.00 Build 0)  -->
<svg version="1.1" id="Layer_1" xmlns="http://www.w3.org/2000/svg" xmlns:xlink="http://www.w3.org/1999/xlink" x="0px" y="0px"
	 viewBox="150 -18 324 60" style="enable-background:new 150 -18 324 60;" xml:space="preserve">
<style type="text/css">
	.st0{fill:#FFFFFF;}
</style>
<g>
	<g>
		<path class="st0" d="M334.6,1.2c-1-1-2.2-1.5-3.5-1.5c-1.9,0-3.3,0.7-4.2,2c-0.9,1.3-1.3,3-1.3,5v14c0,0.6,0,1.1,0.1,1.6
			c0.1,0.5,0.2,0.9,0.5,1.4l-5.2,0.1c0.3-0.5,0.5-1,0.6-1.7c0.1-0.7,0.2-1.4,0.2-2V1.2c0-0.8,0-1.5-0.1-2.1
			c-0.1-0.6-0.3-1.2-0.6-1.8h4.5V3c1.2-1.6,2.5-2.9,3.9-3.8c1.6-1.1,3.3-1.8,5.1-2L334.6,1.2L334.6,1.2z"/>
		<path class="st0" d="M336.8,6.4c-0.2,1.3-0.2,2.1-0.3,2.6c0,0.5,0,0.9,0,1.2c0,3.6,0.7,6.6,2.2,8.8c1.8,2.7,4.4,4,7.8,4
			c1.5,0,3.1-0.3,4.6-0.9c1.5-0.6,2.9-1.4,4.1-2.5l-0.3,1.4c-1.6,1.2-3.1,2.1-4.5,2.6c-1.4,0.5-3.1,0.8-4.9,0.8
			c-3.9,0-7.1-1.3-9.4-4c-2.4-2.7-3.5-6.1-3.5-10.1c0-3.9,1.2-7.2,3.7-9.8c2.5-2.6,5.6-3.9,9.5-3.9c2.9,0,5.4,0.9,7.5,2.6
			c2.1,1.8,3.3,4.1,3.6,7L336.8,6.4L336.8,6.4z M349.8,5.8c1.7,0,2.6-0.8,2.6-2.5c0-1.7-0.7-3.2-2-4.3c-1.4-1.1-2.9-1.7-4.7-1.7
			c-2.3,0-4.3,0.8-5.9,2.5c-1.4,1.5-2.4,3.5-2.9,5.9L349.8,5.8L349.8,5.8z"/>
		<path class="st0" d="M358.9,18.3v-17c0-1-0.1-1.7-0.2-2.1c-0.1-0.5-0.3-0.9-0.6-1.4h5v22.4c0,1,0,1.7,0.1,2.1
			c0.1,0.5,0.3,1,0.6,1.5h-5.9c0.4-0.6,0.6-1.2,0.8-1.7c0.1-0.5,0.2-1.2,0.2-2C358.9,19.3,358.9,18.7,358.9,18.3z M361.1-14.4
			c0.8,0,1.5,0.2,2.1,0.7c0.6,0.5,0.9,1.1,0.9,1.9c0,0.8-0.3,1.4-0.9,1.8c-0.6,0.4-1.3,0.7-2.1,0.7c-0.8,0-1.4-0.2-2.1-0.7
			c-0.6-0.5-0.9-1.1-0.9-1.8c0-0.8,0.3-1.4,0.9-1.9C359.6-14.1,360.3-14.4,361.1-14.4z"/>
		<path class="st0" d="M366.7,18.5V1c0-1.1,0-1.8-0.1-2.2c-0.1-0.4-0.2-0.9-0.4-1.5h4.3v4.5c1.5-1.6,2.9-2.9,4.2-3.6
			c1.7-1,3.5-1.4,5.4-1.4h1.8c2.6,0.3,4.4,1.1,5.4,2.3c1,1.2,1.5,3.1,1.5,5.7v15.3c0,0.5,0,1,0,1.7c0,0.7,0.2,1.3,0.5,2h-4.6
			c0.2-2.1,0.3-4.3,0.3-6.4V6.3c0-2.3-0.4-4.2-1.3-5.5c-1-1.6-2.6-2.4-4.9-2.4c-0.7,0-1.5,0.1-2.4,0.3c-2.2,0.5-3.8,1.3-4.7,2.7
			c-0.9,1.3-1.4,3.2-1.4,5.5v13.7c0,0.6,0,1.1,0.1,1.7c0.1,0.5,0.2,1.1,0.5,1.6h-5.1c0.2-0.4,0.4-0.9,0.6-1.5
			c0.1-0.6,0.2-1.4,0.2-2.5C366.7,19.2,366.7,18.8,366.7,18.5z"/>
		<path class="st0" d="M394.8-2.7l-0.1,0.7c0,0.5,0.1,1,0.2,1.5c0.1,0.6,0.3,1.2,0.6,1.8l7,19.3l7-19.3c0.3-0.8,0.4-1.5,0.4-2.2
			c0-0.6-0.2-1.2-0.5-1.9h3.2c-0.9,1-1.6,2.2-2.1,3.6l-8.5,22.9h-2.5l-8.4-22.9c-0.3-0.7-0.5-1.4-0.8-2c-0.3-0.6-0.7-1.1-1.2-1.7
			H394.8z"/>
		<path class="st0" d="M415.7,6.4c-0.2,1.3-0.2,2.1-0.3,2.6c0,0.5,0,0.9,0,1.2c0,3.6,0.7,6.6,2.2,8.8c1.8,2.7,4.4,4,7.8,4
			c1.5,0,3.1-0.3,4.6-0.9c1.5-0.6,2.9-1.4,4.1-2.5l-0.3,1.4c-1.6,1.2-3.1,2.1-4.5,2.6c-1.4,0.5-3.1,0.8-4.9,0.8
			c-3.9,0-7.1-1.3-9.4-4c-2.4-2.7-3.5-6.1-3.5-10.1c0-3.9,1.2-7.2,3.7-9.8c2.5-2.6,5.6-3.9,9.5-3.9c2.9,0,5.4,0.9,7.5,2.6
			c2.1,1.8,3.3,4.1,3.6,7L415.7,6.4L415.7,6.4L415.7,6.4z M428.8,5.8c1.7,0,2.6-0.8,2.6-2.5c0-1.7-0.7-3.2-2-4.3
			c-1.4-1.1-2.9-1.7-4.7-1.7c-2.3,0-4.3,0.8-5.9,2.5c-1.4,1.5-2.4,3.5-2.9,5.9L428.8,5.8L428.8,5.8z"/>
		<path class="st0" d="M437.6,18.5V1c0-1.1,0-1.8-0.1-2.2c-0.1-0.4-0.2-0.9-0.4-1.5h4.3v4.5c1.5-1.6,2.9-2.9,4.2-3.6
			c1.6-1,3.5-1.4,5.4-1.4h1.8c2.6,0.3,4.4,1.1,5.4,2.3c1,1.2,1.5,3.1,1.5,5.7v15.3c0,0.5,0,1,0,1.7c0,0.7,0.2,1.3,0.5,2h-4.7
			c0.2-2.1,0.3-4.3,0.3-6.4V6.3c0-2.3-0.4-4.2-1.3-5.5c-1-1.6-2.6-2.4-4.9-2.4c-0.7,0-1.5,0.1-2.4,0.3c-2.2,0.5-3.8,1.3-4.7,2.7
			c-0.9,1.3-1.4,3.2-1.4,5.5v13.7c0,0.6,0,1.1,0.1,1.7c0.1,0.5,0.2,1.1,0.5,1.6h-5.1c0.2-0.4,0.4-0.9,0.6-1.5
			c0.1-0.6,0.2-1.4,0.2-2.5C437.6,19.2,437.6,18.8,437.6,18.5z"/>
		<path class="st0" d="M461.3-2.4h2.2v-5.9l4-1.1v7h5.5l-0.2,1h-5.3v19.1c0,1.5,0.2,2.6,0.6,3.3c0.5,1.1,1.5,1.6,2.8,1.6
			c1,0,1.8-0.3,2.6-0.8v1c-0.7,0.5-1.5,0.8-2.3,1c-0.8,0.2-1.7,0.3-2.6,0.3c-2,0-3.4-0.7-4.1-2.1c-0.6-1-0.9-2.6-0.9-4.8V-1.3h-2.4
			L461.3-2.4z"/>
	</g>
</g>
<g>
	<g>
		<g>
			<path class="st0" d="M215.9-2.2h9.9l4.3,16.8l5.4-16.8h9.2l5.6,16.8l4.3-16.8h9.8l-9.8,26.7h-9.1l-5.4-16.1l-5.2,16.1h-9.1
				L215.9-2.2z"/>
		</g>
		<g>
			<path class="st0" d="M291.3,13.7h-20.5c0.2,1.6,0.6,2.9,1.3,3.7c1,1.2,2.3,1.7,3.9,1.7c1,0,2-0.3,2.9-0.8
				c0.6-0.3,1.1-0.9,1.8-1.7l10.1,0.9c-1.5,2.7-3.4,4.6-5.6,5.8c-2.2,1.2-5.3,1.7-9.4,1.7c-3.5,0-6.3-0.5-8.3-1.5s-3.7-2.6-5-4.8
				s-2-4.7-2-7.7c0-4.2,1.3-7.5,4-10.1c2.7-2.6,6.4-3.9,11.1-3.9c3.8,0,6.8,0.6,9,1.7c2.2,1.2,3.9,2.8,5.1,5
				c1.2,2.2,1.7,5.1,1.7,8.6L291.3,13.7L291.3,13.7z M280.9,8.8c-0.2-2-0.7-3.4-1.6-4.2c-0.9-0.9-2-1.3-3.4-1.3
				c-1.6,0-2.9,0.6-3.9,1.9c-0.6,0.8-1,2-1.2,3.6L280.9,8.8L280.9,8.8z"/>
		</g>
		<g>
			<path class="st0" d="M291.3-12.4h10.3V0.4c1-1.1,2.2-1.9,3.5-2.4c1.3-0.5,2.7-0.8,4.3-0.8c3.3,0,5.9,1.2,8.1,3.5
				c2.1,2.3,3.2,5.7,3.2,10.1c0,2.9-0.5,5.5-1.5,7.7s-2.3,3.9-4,5c-1.7,1.1-3.6,1.6-5.7,1.6c-1.8,0-3.4-0.4-4.9-1.2
				c-1.1-0.6-2.3-1.7-3.7-3.4v3.9h-9.6L291.3-12.4L291.3-12.4z M301.6,11.1c0,2.3,0.4,4,1.3,5c0.9,1,2,1.5,3.3,1.5
				c1.2,0,2.2-0.5,3.1-1.5c0.8-1,1.2-2.7,1.2-5.1c0-2.1-0.4-3.7-1.2-4.7c-0.8-1-1.8-1.5-3-1.5c-1.4,0-2.5,0.5-3.4,1.5
				C302,7.4,301.6,9,301.6,11.1z"/>
		</g>
	</g>
</g>
<g>
	<path class="st0" d="M229.5,38.9c-0.1,0-0.2,0.1-0.4,0.1c-0.2,0-0.3,0-0.5,0.1c-0.2,0-0.4,0-0.6,0.1c-0.2,0-0.4,0-0.6,0
		c-0.2,0-0.5-0.1-0.7-0.2c-0.2-0.1-0.4-0.2-0.5-0.4c-0.2-0.2-0.3-0.4-0.4-0.6c-0.1-0.2-0.1-0.4-0.1-0.6c0-0.4,0.1-0.8,0.3-1.1
		s0.5-0.5,0.8-0.7c0.3-0.2,0.7-0.3,1.2-0.3c0.5-0.1,0.9-0.1,1.5-0.1v-0.7c0-0.9-0.5-1.3-1.4-1.3c-0.3,0-0.6,0-0.9,0.1
		c-0.3,0.1-0.6,0.2-0.9,0.4l-0.3-0.5c0.4-0.2,0.8-0.4,1.2-0.4c0.4-0.1,0.7-0.1,1.1-0.1c0.2,0,0.4,0,0.6,0.1c0.2,0,0.4,0.1,0.6,0.2
		c0.2,0.1,0.4,0.3,0.5,0.5c0.1,0.2,0.2,0.5,0.2,0.8v4.8L229.5,38.9z M229.5,35.8c-0.4,0-0.8,0-1.2,0c-0.4,0-0.7,0.1-1,0.2
		s-0.5,0.3-0.7,0.5s-0.3,0.5-0.3,0.8c0,0.4,0.1,0.7,0.4,0.9s0.5,0.4,0.9,0.4c0.1,0,0.3,0,0.5,0c0.2,0,0.4,0,0.5-0.1
		c0.2,0,0.3-0.1,0.5-0.1c0.1,0,0.3-0.1,0.3-0.1L229.5,35.8L229.5,35.8z"/>
	<path class="st0" d="M243.1,39.2l-0.3-0.2l-1.9-4.8l-2,5l-0.3-0.2l-2.6-6.1l0.6-0.3l2.2,5.3l2-5.1l0.2-0.2l2,5.3l2.3-5.3l0.6,0.3
		L243.1,39.2z"/>
	<path class="st0" d="M250.9,32.9c0.3,0.1,0.6,0.3,0.9,0.5c0.3,0.2,0.5,0.6,0.6,0.9c0.2,0.4,0.2,0.8,0.2,1.3h-4.9
		c0,0.4,0,0.8,0.1,1.1c0.1,0.3,0.3,0.6,0.5,0.9c0.2,0.3,0.5,0.5,0.8,0.6s0.7,0.2,1,0.2c0.4,0,0.7-0.1,1-0.2c0.3-0.1,0.6-0.3,1-0.5
		l0.3,0.5c-0.7,0.6-1.5,0.8-2.4,0.8c-0.4,0-0.9-0.1-1.2-0.2c-0.4-0.2-0.7-0.4-1-0.7c-0.3-0.3-0.5-0.6-0.6-1
		c-0.2-0.4-0.2-0.8-0.2-1.3c0-0.5,0.1-0.9,0.2-1.3c0.1-0.4,0.3-0.7,0.6-1c0.3-0.3,0.6-0.5,0.9-0.7c0.3-0.2,0.7-0.2,1.1-0.2
		C250.2,32.7,250.6,32.8,250.9,32.9z M249.9,33.4c-0.5,0-1,0.2-1.3,0.5s-0.6,0.8-0.7,1.3h4C251.6,34,251,33.4,249.9,33.4z"/>
	<path class="st0" d="M260.1,37.2c-0.2,0.4-0.4,0.8-0.7,1.1c-0.3,0.3-0.7,0.5-1.1,0.7c-0.4,0.2-0.9,0.2-1.4,0.2
		c-0.4,0-0.7,0-1.1-0.1c-0.3-0.1-0.7-0.2-1.1-0.4v-9.1l0.7-0.2v4c0.3-0.2,0.6-0.4,1-0.5c0.3-0.1,0.7-0.2,1.2-0.2
		c0.4,0,0.8,0.1,1.1,0.2s0.6,0.4,0.9,0.6c0.2,0.3,0.4,0.6,0.6,1c0.1,0.4,0.2,0.8,0.2,1.2C260.3,36.3,260.2,36.7,260.1,37.2z
		 M259.4,34.8c-0.1-0.3-0.3-0.6-0.5-0.8c-0.2-0.2-0.4-0.4-0.7-0.5c-0.3-0.1-0.5-0.2-0.9-0.2c-0.4,0-0.7,0.1-1.1,0.2
		c-0.3,0.1-0.7,0.3-1.1,0.7v4.1c0.3,0.1,0.5,0.2,0.8,0.2c0.2,0.1,0.5,0.1,0.7,0.1c0.4,0,0.8-0.1,1.1-0.2c0.3-0.1,0.6-0.3,0.9-0.6
		c0.2-0.2,0.4-0.5,0.6-0.9c0.1-0.3,0.2-0.7,0.2-1.1C259.6,35.4,259.6,35.1,259.4,34.8z"/>
	<path class="st0" d="M268.3,30.1l-0.9,0.9l-0.9-0.9l0.9-0.9L268.3,30.1z M267,39v-6.1l0.7-0.3V39L267,39L267,39z"/>
	<path class="st0" d="M274.7,39v-3.5c0-0.7-0.2-1.2-0.5-1.6c-0.3-0.4-0.8-0.6-1.3-0.6c-0.5,0-0.8,0-1.2,0.1
		c-0.3,0.1-0.6,0.2-0.9,0.4V39h-0.7v-6.2l0.7,0.3v0c0.3-0.1,0.6-0.2,1-0.3c0.4-0.1,0.8-0.1,1.1-0.1c0.7,0,1.3,0.2,1.7,0.6
		c0.4,0.4,0.7,1.1,0.7,1.9V39L274.7,39L274.7,39z"/>
	<path class="st0" d="M282.2,39v-3.5c0-0.7-0.2-1.2-0.5-1.6c-0.3-0.4-0.8-0.6-1.3-0.6c-0.4,0-0.8,0-1.2,0.1
		c-0.3,0.1-0.6,0.2-0.9,0.4V39h-0.7v-6.2l0.7,0.3v0c0.3-0.1,0.6-0.2,1-0.3c0.4-0.1,0.8-0.1,1.1-0.1c0.7,0,1.3,0.2,1.7,0.6
		c0.4,0.4,0.7,1.1,0.7,1.9V39L282.2,39L282.2,39z"/>
	<path class="st0" d="M291,37.2c-0.2,0.4-0.4,0.7-0.7,1c-0.3,0.3-0.6,0.5-1,0.7c-0.4,0.2-0.8,0.2-1.3,0.2c-0.4,0-0.9-0.1-1.3-0.2
		c-0.4-0.2-0.7-0.4-1-0.7c-0.3-0.3-0.5-0.6-0.7-1c-0.2-0.4-0.2-0.8-0.2-1.3s0.1-0.9,0.2-1.3c0.2-0.4,0.4-0.7,0.7-1
		c0.3-0.3,0.6-0.5,1-0.7c0.4-0.2,0.8-0.2,1.3-0.2c0.4,0,0.9,0.1,1.3,0.2c0.4,0.2,0.7,0.4,1,0.7c0.3,0.3,0.5,0.6,0.7,1
		c0.2,0.4,0.2,0.8,0.2,1.3S291.1,36.8,291,37.2z M290.3,34.9c-0.1-0.3-0.3-0.6-0.5-0.8c-0.2-0.2-0.5-0.4-0.8-0.6
		c-0.3-0.1-0.6-0.2-1-0.2c-0.4,0-0.7,0.1-1,0.2c-0.3,0.1-0.6,0.3-0.8,0.5c-0.2,0.2-0.4,0.5-0.5,0.8c-0.1,0.3-0.2,0.7-0.2,1
		s0.1,0.7,0.2,1c0.1,0.3,0.3,0.6,0.5,0.8c0.2,0.2,0.5,0.4,0.8,0.5c0.3,0.1,0.6,0.2,1,0.2c0.3,0,0.7-0.1,1-0.2
		c0.3-0.1,0.6-0.3,0.8-0.5c0.2-0.2,0.4-0.5,0.5-0.8c0.1-0.3,0.2-0.7,0.2-1S290.4,35.2,290.3,34.9z"/>
	<path class="st0" d="M295.5,39.4l-0.3-0.2l-2.8-6.3l0.6-0.2l2.4,5.4l2.3-5.4l0.6,0.2L295.5,39.4z"/>
	<path class="st0" d="M303.2,38.9c-0.1,0-0.2,0.1-0.4,0.1c-0.2,0-0.3,0-0.5,0.1c-0.2,0-0.4,0-0.6,0.1c-0.2,0-0.4,0-0.6,0
		c-0.2,0-0.5-0.1-0.7-0.2c-0.2-0.1-0.4-0.2-0.5-0.4c-0.2-0.2-0.3-0.4-0.4-0.6c-0.1-0.2-0.1-0.4-0.1-0.6c0-0.4,0.1-0.8,0.3-1.1
		s0.5-0.5,0.8-0.7c0.3-0.2,0.7-0.3,1.2-0.3c0.5-0.1,0.9-0.1,1.5-0.1v-0.7c0-0.9-0.5-1.3-1.4-1.3c-0.3,0-0.6,0-0.9,0.1
		c-0.3,0.1-0.6,0.2-0.9,0.4l-0.3-0.5c0.4-0.2,0.8-0.4,1.2-0.4c0.4-0.1,0.7-0.1,1.1-0.1c0.2,0,0.4,0,0.6,0.1c0.2,0,0.4,0.1,0.6,0.2
		c0.2,0.1,0.4,0.3,0.5,0.5c0.1,0.2,0.2,0.5,0.2,0.8v4.8L303.2,38.9z M303.2,35.8c-0.4,0-0.8,0-1.2,0c-0.4,0-0.7,0.1-1,0.2
		c-0.3,0.1-0.5,0.3-0.7,0.5s-0.3,0.5-0.3,0.8c0,0.4,0.1,0.7,0.4,0.9s0.5,0.4,0.9,0.4c0.1,0,0.3,0,0.5,0c0.2,0,0.4,0,0.5-0.1
		c0.2,0,0.3-0.1,0.5-0.1c0.1,0,0.3-0.1,0.3-0.1V35.8L303.2,35.8z"/>
	<path class="st0" d="M308.6,39.1c-0.3,0.1-0.5,0.1-0.7,0.1c-0.2,0-0.3,0-0.5-0.1c-0.2-0.1-0.3-0.1-0.5-0.2
		c-0.1-0.1-0.2-0.2-0.3-0.4c-0.1-0.2-0.1-0.4-0.1-0.6v-4.4h-1.2v-0.5h1.2v-1.7l0.7-0.4v2.1h1.7v0.5h-1.7v3.7c0,0.3,0,0.5,0,0.7
		c0,0.2,0,0.3,0.1,0.5c0.1,0.1,0.2,0.2,0.3,0.3c0.1,0.1,0.3,0.1,0.5,0.1c0.2,0,0.3,0,0.4,0c0.1,0,0.3-0.1,0.5-0.2l0.3,0.5
		C309.1,38.9,308.9,39,308.6,39.1z"/>
	<path class="st0" d="M312.2,30.1l-0.9,0.9l-0.9-0.9l0.9-0.9L312.2,30.1z M310.9,39v-6.1l0.7-0.3V39L310.9,39L310.9,39z"/>
	<path class="st0" d="M319.8,37.2c-0.2,0.4-0.4,0.7-0.7,1c-0.3,0.3-0.6,0.5-1,0.7c-0.4,0.2-0.8,0.2-1.3,0.2c-0.4,0-0.9-0.1-1.3-0.2
		c-0.4-0.2-0.7-0.4-1-0.7c-0.3-0.3-0.5-0.6-0.7-1c-0.2-0.4-0.2-0.8-0.2-1.3s0.1-0.9,0.2-1.3c0.2-0.4,0.4-0.7,0.7-1
		c0.3-0.3,0.6-0.5,1-0.7c0.4-0.2,0.8-0.2,1.3-0.2c0.4,0,0.9,0.1,1.3,0.2c0.4,0.2,0.7,0.4,1,0.7c0.3,0.3,0.5,0.6,0.7,1
		c0.2,0.4,0.2,0.8,0.2,1.3S320,36.8,319.8,37.2z M319.1,34.9c-0.1-0.3-0.3-0.6-0.5-0.8c-0.2-0.2-0.5-0.4-0.8-0.6
		c-0.3-0.1-0.6-0.2-1-0.2c-0.3,0-0.7,0.1-1,0.2c-0.3,0.1-0.6,0.3-0.8,0.5s-0.4,0.5-0.5,0.8c-0.1,0.3-0.2,0.7-0.2,1s0.1,0.7,0.2,1
		s0.3,0.6,0.5,0.8c0.2,0.2,0.5,0.4,0.8,0.5c0.3,0.1,0.6,0.2,1,0.2c0.4,0,0.7-0.1,1-0.2c0.3-0.1,0.6-0.3,0.8-0.5
		c0.2-0.2,0.4-0.5,0.5-0.8s0.2-0.7,0.2-1S319.3,35.2,319.1,34.9z"/>
	<path class="st0" d="M326.5,39v-3.5c0-0.7-0.2-1.2-0.5-1.6c-0.3-0.4-0.8-0.6-1.3-0.6c-0.5,0-0.8,0-1.2,0.1
		c-0.3,0.1-0.6,0.2-0.9,0.4V39H322v-6.2l0.7,0.3v0c0.3-0.1,0.6-0.2,1-0.3c0.4-0.1,0.8-0.1,1.1-0.1c0.7,0,1.3,0.2,1.7,0.6
		c0.4,0.4,0.7,1.1,0.7,1.9V39L326.5,39L326.5,39z"/>
	<path class="st0" d="M338.1,39.1c-0.4,0.1-0.8,0.1-1.1,0.1c-0.5,0-0.9-0.1-1.3-0.2c-0.4-0.2-0.7-0.4-1-0.6c-0.3-0.3-0.5-0.6-0.7-1
		c-0.2-0.4-0.2-0.8-0.2-1.3c0-0.5,0.1-0.9,0.2-1.3c0.2-0.4,0.4-0.8,0.7-1c0.3-0.3,0.6-0.5,1-0.7c0.4-0.2,0.8-0.2,1.3-0.2
		c0.3,0,0.6,0,1,0.1c0.4,0.1,0.7,0.2,1,0.3l-0.3,0.6c-0.2-0.1-0.4-0.1-0.5-0.2c-0.2-0.1-0.3-0.1-0.4-0.1s-0.3,0-0.4-0.1
		c-0.1,0-0.3,0-0.4,0c-0.4,0-0.7,0.1-1,0.2c-0.3,0.1-0.6,0.3-0.8,0.5c-0.2,0.2-0.4,0.5-0.5,0.8c-0.1,0.3-0.2,0.7-0.2,1.1
		c0,0.8,0.2,1.4,0.7,1.9c0.5,0.5,1.1,0.7,1.9,0.7c0.1,0,0.3,0,0.4,0c0.1,0,0.3,0,0.4-0.1c0.1,0,0.3-0.1,0.4-0.1
		c0.2,0,0.3-0.1,0.5-0.2l0.3,0.6C338.9,38.9,338.5,39,338.1,39.1z"/>
	<path class="st0" d="M346.6,37.2c-0.2,0.4-0.4,0.7-0.7,1s-0.6,0.5-1,0.7c-0.4,0.2-0.8,0.2-1.3,0.2s-0.9-0.1-1.3-0.2
		c-0.4-0.2-0.7-0.4-1-0.7c-0.3-0.3-0.5-0.6-0.7-1c-0.2-0.4-0.2-0.8-0.2-1.3s0.1-0.9,0.2-1.3c0.2-0.4,0.4-0.7,0.7-1
		c0.3-0.3,0.6-0.5,1-0.7c0.4-0.2,0.8-0.2,1.3-0.2s0.9,0.1,1.3,0.2c0.4,0.2,0.7,0.4,1,0.7s0.5,0.6,0.7,1c0.2,0.4,0.2,0.8,0.2,1.3
		S346.7,36.8,346.6,37.2z M345.9,34.9c-0.1-0.3-0.3-0.6-0.5-0.8c-0.2-0.2-0.5-0.4-0.8-0.6c-0.3-0.1-0.6-0.2-1-0.2
		c-0.4,0-0.7,0.1-1,0.2c-0.3,0.1-0.6,0.3-0.8,0.5c-0.2,0.2-0.4,0.5-0.5,0.8c-0.1,0.3-0.2,0.7-0.2,1s0.1,0.7,0.2,1
		c0.1,0.3,0.3,0.6,0.5,0.8c0.2,0.2,0.5,0.4,0.8,0.5c0.3,0.1,0.6,0.2,1,0.2c0.3,0,0.7-0.1,1-0.2c0.3-0.1,0.6-0.3,0.8-0.5
		c0.2-0.2,0.4-0.5,0.5-0.8c0.1-0.3,0.2-0.7,0.2-1S346,35.2,345.9,34.9z"/>
	<path class="st0" d="M357.1,39v-3.5c0-0.3,0-0.6-0.1-0.9c-0.1-0.3-0.1-0.5-0.3-0.7c-0.1-0.2-0.3-0.3-0.5-0.4
		c-0.2-0.1-0.5-0.2-0.8-0.2c-0.4,0-0.8,0.1-1.1,0.2c-0.3,0.1-0.6,0.3-0.9,0.6c0,0,0,0.2,0.1,0.4c0,0.2,0.1,0.4,0.1,0.6V39h-0.7v-3.5
		c0-0.8-0.1-1.3-0.4-1.7c-0.3-0.3-0.7-0.5-1.2-0.5c-0.4,0-0.8,0.1-1.1,0.2c-0.3,0.1-0.5,0.3-0.8,0.4V39h-0.7v-6.2l0.7,0.4
		c0.2-0.1,0.5-0.2,0.8-0.3c0.3-0.1,0.6-0.1,1.1-0.1c0.5,0,0.9,0.1,1.2,0.3c0.3,0.2,0.5,0.4,0.7,0.6c0.4-0.2,0.7-0.5,1.1-0.6
		c0.4-0.2,0.8-0.2,1.3-0.2c0.7,0,1.3,0.2,1.6,0.7c0.3,0.4,0.5,1,0.5,1.8V39L357.1,39L357.1,39z"/>
	<path class="st0" d="M365.5,37.2c-0.2,0.4-0.4,0.7-0.7,1c-0.3,0.3-0.6,0.5-1,0.7s-0.8,0.2-1.2,0.2c-0.3,0-0.6,0-0.9-0.1
		c-0.3-0.1-0.6-0.1-0.9-0.3v3.4h-0.7v-9.5l0.7,0.3c0.3-0.1,0.6-0.2,0.9-0.2c0.3-0.1,0.6-0.1,1-0.1c0.4,0,0.8,0.1,1.2,0.2
		c0.4,0.2,0.7,0.4,1,0.7c0.3,0.3,0.5,0.6,0.6,1c0.2,0.4,0.2,0.8,0.2,1.3C365.7,36.4,365.6,36.8,365.5,37.2z M364.8,34.9
		c-0.1-0.3-0.3-0.6-0.5-0.8c-0.2-0.2-0.5-0.4-0.8-0.5c-0.3-0.1-0.7-0.2-1-0.2c-0.3,0-0.5,0-0.8,0.1c-0.2,0-0.5,0.1-0.9,0.3v4.3
		c0.3,0.2,0.6,0.3,0.9,0.4c0.3,0.1,0.5,0.1,0.8,0.1c0.4,0,0.7-0.1,1-0.2c0.3-0.1,0.6-0.3,0.8-0.5c0.2-0.2,0.4-0.5,0.5-0.8
		c0.1-0.3,0.2-0.7,0.2-1S364.9,35.3,364.8,34.9z"/>
	<path class="st0" d="M371.2,38.9c-0.1,0-0.2,0.1-0.4,0.1c-0.2,0-0.3,0-0.5,0.1c-0.2,0-0.4,0-0.6,0.1c-0.2,0-0.4,0-0.6,0
		c-0.2,0-0.5-0.1-0.7-0.2c-0.2-0.1-0.4-0.2-0.5-0.4c-0.2-0.2-0.3-0.4-0.4-0.6c-0.1-0.2-0.1-0.4-0.1-0.6c0-0.4,0.1-0.8,0.3-1.1
		s0.5-0.5,0.8-0.7c0.3-0.2,0.7-0.3,1.2-0.3c0.5-0.1,0.9-0.1,1.5-0.1v-0.7c0-0.9-0.5-1.3-1.4-1.3c-0.3,0-0.6,0-0.9,0.1
		c-0.3,0.1-0.6,0.2-0.9,0.4l-0.3-0.5c0.4-0.2,0.8-0.4,1.2-0.4s0.7-0.1,1.1-0.1c0.2,0,0.4,0,0.6,0.1c0.2,0,0.4,0.1,0.6,0.2
		c0.2,0.1,0.4,0.3,0.5,0.5c0.1,0.2,0.2,0.5,0.2,0.8v4.8L371.2,38.9z M371.2,35.8c-0.4,0-0.8,0-1.2,0c-0.4,0-0.7,0.1-1,0.2
		c-0.3,0.1-0.5,0.3-0.7,0.5c-0.2,0.2-0.3,0.5-0.3,0.8c0,0.4,0.1,0.7,0.4,0.9s0.5,0.4,0.9,0.4c0.1,0,0.3,0,0.5,0c0.2,0,0.4,0,0.5-0.1
		c0.2,0,0.3-0.1,0.5-0.1c0.1,0,0.3-0.1,0.3-0.1L371.2,35.8L371.2,35.8z"/>
	<path class="st0" d="M378.6,39v-3.5c0-0.7-0.2-1.2-0.5-1.6c-0.3-0.4-0.8-0.6-1.3-0.6c-0.5,0-0.8,0-1.2,0.1
		c-0.3,0.1-0.6,0.2-0.9,0.4V39h-0.7v-6.2l0.7,0.3v0c0.3-0.1,0.6-0.2,1-0.3c0.4-0.1,0.8-0.1,1.1-0.1c0.7,0,1.3,0.2,1.7,0.6
		c0.4,0.4,0.7,1.1,0.7,1.9V39L378.6,39L378.6,39z"/>
	<path class="st0" d="M383.6,39c-0.3,0.6-0.6,1-0.8,1.3c-0.3,0.3-0.6,0.6-0.8,0.8c-0.3,0.2-0.5,0.3-0.7,0.4
		c-0.2,0.1-0.4,0.1-0.5,0.1l-0.2-0.5c0.2,0,0.4-0.1,0.6-0.2c0.2-0.1,0.4-0.2,0.6-0.3s0.4-0.3,0.6-0.6c0.2-0.2,0.4-0.6,0.6-0.9
		c0.1-0.1,0.1-0.2,0.2-0.4c0.1-0.1,0.1-0.3,0.2-0.4s0.1-0.2,0.1-0.3c0-0.1,0-0.1,0-0.2l-2.6-4.9l0.6-0.3l2.4,4.6l2.2-4.6l0.6,0.3
		L383.6,39z"/>
</g>
<g>
	<path class="st0" d="M178.7,24.9c6.4,6.4,13.5-0.8,13.5-0.8c7.6-7.3,0.8-13.6,0.8-13.6L188.6,6c-0.8-0.7-2-0.7-2.7,0l-0.6,0.6
		c-0.7,0.8-0.7,2,0,2.7l4.4,4.4c0,0,4,3.5-0.1,7.5c0,0-3.9,4.4-7.6,0.3l-4.5-4.4c-0.7-0.7-2-0.7-2.7,0l-0.6,0.6
		c-0.7,0.8-0.7,2,0,2.7L178.7,24.9z"/>
	<path class="st0" d="M179.8,15.1c-0.8-0.8-0.9-2.1-0.2-2.9l0.6-0.6c0.7-0.8,2-0.7,2.9,0.2l4.9,4.9c0.8,0.8,0.9,2.1,0.2,2.9
		l-0.6,0.6c-0.7,0.7-2,0.7-2.9-0.2L179.8,15.1z"/>
</g>
<path class="st0" d="M209.7,38.7c-1.6-7.8-1.2-14.9-0.7-21.9c0.6-10.7,1.3-20.9-6.9-29.1c-7.1-7.1-18.7-7.1-25.9,0
	c-4,4-5.8,9.6-5.2,15.1c-5.5-0.6-11.1,1.2-15.1,5.2c-7.1,7.1-7.1,18.7,0,25.9c8.5,8.5,18.7,7.9,29.5,7.2c0.7,0,1.4-0.1,2.1-0.1
	l2.5-0.2l-9.2-4.3l-3.1,0.1c-7.1,0.1-13-0.9-18.2-6.1c-5.2-5.2-5.2-13.7,0-19c3.6-3.6,9.2-4.9,14-3.1l4.9,1.8l-1.8-4.9
	c-1.8-4.9-0.5-10.4,3.1-14c5.2-5.2,13.7-5.2,19,0c6.6,6.6,6.1,14.9,5.5,25.3c-0.2,3.7-0.5,7.6-0.4,11.7l6.4,13.1L209.7,38.7z"/>
</svg>
